<?xml version="1.0" encoding="UTF-8" standalone="no"?>
<svg
   xmlns:dc="http://purl.org/dc/elements/1.1/"
   xmlns:cc="http://creativecommons.org/ns#"
   xmlns:rdf="http://www.w3.org/1999/02/22-rdf-syntax-ns#"
   xmlns:svg="http://www.w3.org/2000/svg"
   xmlns="http://www.w3.org/2000/svg"
   xmlns:sodipodi="http://sodipodi.sourceforge.net/DTD/sodipodi-0.dtd"
   xmlns:inkscape="http://www.inkscape.org/namespaces/inkscape"
   inkscape:version="1.0 (4035a4fb49, 2020-05-01)"
   sodipodi:docname="games.svg"
   id="svg38"
   version="1"
   height="48"
   width="48">
  <metadata
     id="metadata44">
    <rdf:RDF>
      <cc:Work
         rdf:about="">
        <dc:format>image/svg+xml</dc:format>
        <dc:type
           rdf:resource="http://purl.org/dc/dcmitype/StillImage" />
        <dc:title></dc:title>
      </cc:Work>
    </rdf:RDF>
  </metadata>
  <defs
     id="defs42" />
  <sodipodi:namedview
     inkscape:current-layer="svg38"
     inkscape:window-maximized="0"
     inkscape:window-y="30"
     inkscape:window-x="0"
     inkscape:cy="24"
     inkscape:cx="24"
     inkscape:zoom="14.083333"
     showgrid="false"
     id="namedview40"
     inkscape:window-height="480"
     inkscape:window-width="701"
     inkscape:pageshadow="2"
     inkscape:pageopacity="0"
     guidetolerance="10"
     gridtolerance="10"
     objecttolerance="10"
     borderopacity="1"
     bordercolor="#666666"
     pagecolor="#ffffff" />
  <path
     id="path2"
     d="m14.053 9c-4.9768 0-8.7209 4.0039-8.9824 8.9629l-0.9983 18.922c-0.6298 3.7 2.9673 6.0372 5.9902 1.9922l5.2344-7.8359c0.23039 0.01766 0.46028 0.03711 0.69531 0.03711h15.988l5.9941 8.0488c2.9976 4.0243 6.3771 0.71189 5.9961-2.0117l-0.985-18.836c0.004-0.105 0.016-0.209 0.016-0.316 0-4.965-4.0064-8.9629-8.9824-8.9629h-19.963-0.002z"
     opacity=".2" />
  <path
     id="path4"
     d="m14.053 8c-4.9771 0-8.7212 4.004-8.9827 8.963l-0.998 18.922c-0.6298 3.7 2.9673 6.037 5.9897 1.992l5.235-7.836c0.23 0.018 0.46 0.037 0.695 0.037h15.988l5.995 8.049c2.997 4.024 6.377 0.712 5.996-2.012l-0.987-18.836c0.004-0.105 0.016-0.209 0.016-0.316 0-4.965-4.006-8.963-8.982-8.963h-19.963-0.002z"
     fill="#4f4f4f" />
  <g
     id="g18"
     transform="translate(-135.98 -238)"
     opacity=".2">
    <circle
       id="circle6"
       r="1.5"
       cy="256.5"
       cx="166.5" />
    <circle
       id="circle8"
       r="1.5"
       cy="256.5"
       cx="172.5" />
    <circle
       id="circle10"
       transform="rotate(90)"
       r="1.5"
       cy="-169.5"
       cx="253.5" />
    <circle
       id="circle12"
       transform="rotate(90)"
       r="1.5"
       cy="-169.5"
       cx="259.5" />
    <rect
       id="rect14"
       ry="0"
       y="252"
       x="149"
       height="9"
       width="3" />
    <rect
       id="rect16"
       transform="rotate(90)"
       ry="0"
       y="-155"
       x="255"
       height="9"
       width="3" />
  </g>
  <g
     id="g24"
     fill="#e4e4e4">
    <rect
       id="rect20"
       ry="0"
       y="12.93"
       x="13.02"
       height="9"
       width="3" />
    <rect
       id="rect22"
       transform="rotate(90)"
       ry="0"
       y="-19.02"
       x="15.93"
       height="9"
       width="3" />
  </g>
  <circle
     id="circle26"
     r="1.5"
     cy="17.43"
     cx="36.52"
     fill="#ffca58" />
  <g
     id="g32"
     fill="#ee5353">
    <circle
       id="circle28"
       r="1.5"
       cy="17.43"
       cx="30.52" />
    <circle
       id="circle30"
       transform="rotate(90)"
       r="1.5"
       cy="-33.52"
       cx="14.43" />
  </g>
  <circle
     id="circle34"
     transform="rotate(90)"
     r="1.5"
     cy="-33.52"
     cx="20.43"
     fill="#ffca58" />
  <path
     id="path36"
     d="m14.052 8c-4.9771 0-8.7224 4.1075-8.984 9.1939l-0.9985 19.409c-0.0819 0.494-0.0876 0.962-0.037 1.397 0.0118-0.125 0.0158-0.247 0.037-0.375l0.9982-19.41c0.2616-5.086 4.0069-9.1935 8.9843-9.1935h19.964c4.817 0 8.7141 3.8445 8.9606 8.7091 0.01-0.1782 0.02336-0.35587 0.02336-0.53671 0-5.0934-4.0068-9.1939-8.984-9.1939h-19.964z"
     opacity=".1"
     fill="#fff" />
</svg>
