<?xml version="1.0" encoding="UTF-8" standalone="no"?>
<svg
   xmlns:dc="http://purl.org/dc/elements/1.1/"
   xmlns:cc="http://creativecommons.org/ns#"
   xmlns:rdf="http://www.w3.org/1999/02/22-rdf-syntax-ns#"
   xmlns:svg="http://www.w3.org/2000/svg"
   xmlns="http://www.w3.org/2000/svg"
   xmlns:sodipodi="http://sodipodi.sourceforge.net/DTD/sodipodi-0.dtd"
   xmlns:inkscape="http://www.inkscape.org/namespaces/inkscape"
   width="48"
   height="48"
   version="1"
   id="svg16"
   sodipodi:docname="mail.svg"
   inkscape:version="1.0 (4035a4fb49, 2020-05-01)">
  <metadata
     id="metadata22">
    <rdf:RDF>
      <cc:Work
         rdf:about="">
        <dc:format>image/svg+xml</dc:format>
        <dc:type
           rdf:resource="http://purl.org/dc/dcmitype/StillImage" />
      </cc:Work>
    </rdf:RDF>
  </metadata>
  <defs
     id="defs20" />
  <sodipodi:namedview
     pagecolor="#ffffff"
     bordercolor="#666666"
     borderopacity="1"
     objecttolerance="10"
     gridtolerance="10"
     guidetolerance="10"
     inkscape:pageopacity="0"
     inkscape:pageshadow="2"
     inkscape:window-width="1920"
     inkscape:window-height="1013"
     id="namedview18"
     showgrid="false"
     inkscape:zoom="4.9166667"
     inkscape:cx="24"
     inkscape:cy="24"
     inkscape:window-x="0"
     inkscape:window-y="0"
     inkscape:window-maximized="1"
     inkscape:current-layer="svg16"
     inkscape:document-rotation="0" />
  <path
     fill="#fe9700"
     d="m24 3-19.09 14.324c-0.0411 0.0267-0.0783 0.0583-0.11719 0.0879l-0.0234 0.0176v0.002c-0.4654 0.365-0.7694 0.927-0.7694 1.568v8c0 1.108 0.892 2 2 2h36c1.108 0 2-0.892 2-2v-8c0-0.65501-0.31697-1.2294-0.80078-1.5938l0.008-0.0117z"
     id="path2" />
  <path
     fill="#fff"
     opacity=".1"
     d="m24 3-19.09 14.324c-0.0411 0.0267-0.0783 0.0583-0.11719 0.0879l-0.0234 0.0176v0.002c-0.4654 0.365-0.7694 0.927-0.7694 1.568v1c0-0.64051 0.30392-1.2029 0.76953-1.5684v-0.002l0.0234-0.0176c0.0389-0.0296 0.0761-0.0612 0.11719-0.0879l19.09-14.324 19.207 14.395-0.008 0.0117c0.484 0.364 0.801 0.938 0.801 1.593v-1c0-0.65501-0.31697-1.2294-0.80078-1.5938l0.008-0.0117-19.207-14.394z"
     id="path4" />
  <rect
     fill="#ebebeb"
     width="32"
     height="26"
     x="8"
     y="7"
     rx="2"
     ry="2"
     id="rect6" />
  <path
     fill="#fec006"
     d="m4 19 38 26h-36c-1.108 0-2-0.892-2-2z"
     id="path8" />
  <path
     fill="#fecd38"
     d="m42 45c1.108 0 2-0.892 2-2v-24l-38 26z"
     id="path10" />
  <path
     opacity=".2"
     d="m4 43v1c0 1.108 0.892 2 2 2h36c1.108 0 2-0.892 2-2v-1c0 1.108-0.892 2-2 2h-36c-1.108 0-2-0.892-2-2z"
     id="path14" />
  <path
     id="path2-3"
     d="m -59.186505,31.788235 -19.09,14.324 c -0.0411,0.0267 -0.0783,0.0583 -0.11719,0.0879 l -0.0234,0.0176 v 0.002 c -0.4654,0.365 -0.7694,0.927 -0.7694,1.568 v 8 c 0,1.108 0.892,2 2,2 h 36 c 1.108,0 2,-0.892 2,-2 v -8 c 0,-0.65501 -0.31697,-1.2294 -0.80078,-1.5938 l 0.008,-0.0117 z"
     fill="#fe9700" />
  <path
     id="path4-6"
     d="m -59.186505,31.788235 -19.09,14.324 c -0.0411,0.0267 -0.0783,0.0583 -0.11719,0.0879 l -0.0234,0.0176 v 0.002 c -0.4654,0.365 -0.7694,0.927 -0.7694,1.568 v 1 c 0,-0.64051 0.30392,-1.2029 0.76953,-1.5684 v -0.002 l 0.0234,-0.0176 c 0.0389,-0.0296 0.0761,-0.0612 0.11719,-0.0879 l 19.09,-14.324 19.207,14.395 -0.008,0.0117 c 0.484,0.364 0.801,0.938 0.801,1.593 v -1 c 0,-0.65501 -0.31697,-1.2294 -0.80078,-1.5938 l 0.008,-0.0117 -19.207,-14.394 z"
     opacity="0.1"
     fill="#ffffff" />
  <rect
     id="rect6-7"
     ry="2"
     rx="2"
     y="35.788235"
     x="-75.186508"
     height="26"
     width="32"
     fill="#ebebeb" />
  <path
     id="path8-5"
     d="m -79.186505,47.788235 38,26 h -36 c -1.108,0 -2,-0.892 -2,-2 z"
     fill="#fec006" />
  <path
     id="path10-3"
     d="m -41.186505,73.788235 c 1.108,0 2,-0.892 2,-2 v -24 l -38,26 z"
     fill="#fecd38" />
  <path
     fill="#848484"
     id="path12-5"
     d="m -59.186505,39.788235 c -4.4183,0 -8,3.5817 -8,8 0,4.4183 3.5817,8 8,8 h 5 c 0,0 0.9375,0 1,-1 0,-1 -1,-1 -1,-1 h -5 c -3.3137,0 -6,-2.6863 -6,-6 0,-3.3137 2.6863,-6 6,-6 3.3137,0 6,2.6863 6,6 v 1 c 0,0.55228 -0.44772,1 -1,1 -0.55228,0 -1,-0.44772 -1,-1 v -1 c 0,-2.2091 -1.7909,-4 -4,-4 -2.2091,0 -4,1.7909 -4,4 0,2.2091 1.7909,4 4,4 1.0462,0 1.9903,-0.4109 2.7031,-1.0684 0.57,0.677 1.411,1.068 2.297,1.068 1.6568,0 3,-1.3432 3,-3 v -1 c 0,-4.4183 -3.5817,-8 -8,-8 z m 0,6 c 1.1046,0 2,0.89543 2,2 0,1.10457 -0.89543,2 -2,2 -1.10457,0 -2,-0.89543 -2,-2 0,-1.10457 0.89543,-2 2,-2 z" />
  <path
     id="path14-6"
     d="m -79.186505,71.788235 v 1 c 0,1.108 0.892,2 2,2 h 36 c 1.108,0 2,-0.892 2,-2 v -1 c 0,1.108 -0.892,2 -2,2 h -36 c -1.108,0 -2,-0.892 -2,-2 z"
     opacity="0.2" />
  <path
     d="m 23.963407,10.515085 c -4.055425,0 -7.34296,3.287534 -7.34296,7.342959 0,4.055425 3.287535,7.34296 7.34296,7.34296 h 4.58935 c 0,0 0.860502,0 0.917869,-0.917871 0,-0.917869 -0.917869,-0.917869 -0.917869,-0.917869 h -4.58935 c -3.041545,0 -5.50722,-2.465675 -5.50722,-5.50722 0,-3.041545 2.465675,-5.507219 5.50722,-5.507219 3.041546,0 5.507219,2.465674 5.507219,5.507219 v 0.91787 c 0,0.506921 -0.410949,0.91787 -0.917869,0.91787 -0.506922,0 -0.917871,-0.410949 -0.917871,-0.91787 v -0.91787 c 0,-2.027666 -1.643813,-3.671479 -3.671479,-3.671479 -2.027667,0 -3.67148,1.643813 -3.67148,3.671479 0,2.027667 1.643813,3.67148 3.67148,3.67148 0.960275,0 1.826836,-0.377153 2.481094,-0.980652 0.523186,0.621398 1.295114,0.980285 2.108347,0.980285 1.520727,0 2.75361,-1.232882 2.75361,-2.75361 v -0.917869 c 0,-4.055425 -3.287534,-7.34296 -7.342959,-7.34296 z m 0,5.50722 c 1.013879,0 1.835739,0.821888 1.835739,1.835739 0,1.013852 -0.821888,1.83574 -1.835739,1.83574 -1.013852,0 -1.83574,-0.821888 -1.83574,-1.83574 0,-1.013851 0.821888,-1.835739 1.83574,-1.835739 z"
     id="path12-5-2"
     fill="#848484"
     style="stroke-width:0.917871" />
</svg>
