<?xml version="1.0" encoding="UTF-8" standalone="no"?>
<svg
   width="64"
   height="64"
   viewBox="0 0 16.933 16.933"
   version="1.1"
   id="svg12"
   sodipodi:docname="extensions.svg"
   inkscape:version="1.1 (c4e8f9ed74, 2021-05-24)"
   xmlns:inkscape="http://www.inkscape.org/namespaces/inkscape"
   xmlns:sodipodi="http://sodipodi.sourceforge.net/DTD/sodipodi-0.dtd"
   xmlns="http://www.w3.org/2000/svg"
   xmlns:svg="http://www.w3.org/2000/svg">
  <defs
     id="defs16" />
  <sodipodi:namedview
     id="namedview14"
     pagecolor="#ffffff"
     bordercolor="#666666"
     borderopacity="1.0"
     inkscape:pageshadow="2"
     inkscape:pageopacity="0.0"
     inkscape:pagecheckerboard="0"
     showgrid="false"
     inkscape:zoom="11.749218"
     inkscape:cx="12.383803"
     inkscape:cy="34.342712"
     inkscape:window-width="1920"
     inkscape:window-height="1020"
     inkscape:window-x="0"
     inkscape:window-y="28"
     inkscape:window-maximized="1"
     inkscape:current-layer="svg12" />
  <rect
     transform="scale(1,-1)"
     width="13.758"
     height="13.758"
     rx="0.63700002"
     ry="0.63700002"
     x="1.587"
     y="-15.345994"
     style="color:#000000;fill:#8fb633;fill-opacity:1;marker:none"
     overflow="visible"
     fill="#34b05c"
     id="rect2" />
  <rect
     style="color:#000000;fill:#8fb633;fill-opacity:1;marker:none;stroke:#8fb633;stroke-opacity:0.74901962"
     y="1.4550031"
     x="1.455"
     ry="0.76499999"
     rx="0.76499999"
     height="14.023"
     width="14.023"
     overflow="visible"
     fill="none"
     stroke="#1d793d"
     stroke-width="0.265"
     stroke-linecap="round"
     stroke-linejoin="round"
     stroke-opacity="0.749"
     id="rect4" />
  <path
     d="M8.467 5.292L4.233 6.985 8.467 8.68l3.175-1.27v.743a.661.661 0 0 0-.397.606.661.661 0 0 0 .417.614l-.351 1.211h1.27L12.22 9.34a.661.661 0 0 0 .348-.581.661.661 0 0 0-.397-.606v-.955l.529-.212-4.233-1.693zM6.35 8.467v2.222a2.117.953 0 0 0 2.117.953 2.117.953 0 0 0 2.116-.953V8.467l-2.116.895-2.117-.895z"
     fill="#fff"
     id="path10" />
</svg>
