<?xml version="1.0" encoding="UTF-8" standalone="no"?>
<svg
   width="64"
   height="64"
   viewBox="0 0 16.933 16.933"
   version="1.1"
   id="svg62"
   sodipodi:docname="gedit.svg"
   inkscape:version="1.1 (c4e8f9ed74, 2021-05-24)"
   xmlns:inkscape="http://www.inkscape.org/namespaces/inkscape"
   xmlns:sodipodi="http://sodipodi.sourceforge.net/DTD/sodipodi-0.dtd"
   xmlns:xlink="http://www.w3.org/1999/xlink"
   xmlns="http://www.w3.org/2000/svg"
   xmlns:svg="http://www.w3.org/2000/svg">
  <sodipodi:namedview
     id="namedview64"
     pagecolor="#ffffff"
     bordercolor="#666666"
     borderopacity="1.0"
     inkscape:pageshadow="2"
     inkscape:pageopacity="0.0"
     inkscape:pagecheckerboard="0"
     showgrid="false"
     inkscape:zoom="11.046875"
     inkscape:cx="10.093352"
     inkscape:cy="32"
     inkscape:window-width="1920"
     inkscape:window-height="1020"
     inkscape:window-x="0"
     inkscape:window-y="28"
     inkscape:window-maximized="1"
     inkscape:current-layer="svg62" />
  <defs
     id="defs8">
    <linearGradient
       x1="22.004"
       y1="44.854"
       x2="22.004"
       y2="3.072"
       id="b"
       xlink:href="#a"
       gradientUnits="userSpaceOnUse"
       gradientTransform="matrix(0.35276,0,0,0.35276,-0.044,0.309)" />
    <linearGradient
       id="a">
      <stop
         offset="0"
         stop-color="#a0a0a0"
         id="stop3" />
      <stop
         offset="1"
         stop-color="#c8c8c8"
         id="stop5" />
    </linearGradient>
  </defs>
  <rect
     width="11.906"
     height="14.023"
     x="2.5139999"
     y="1.4550031"
     rx="0"
     ry="0"
     fill="#f3f3f3"
     stroke="#5e5750"
     stroke-width="0.265"
     stroke-linecap="round"
     stroke-linejoin="round"
     stroke-opacity="0.255"
     paint-order="fill markers stroke"
     id="rect10"
     style="fill:#f2f2f2;stroke:#bcbcbc;stroke-opacity:0.25500003" />
  <rect
     transform="rotate(90)"
     ry="0"
     rx="0"
     y="-14.191"
     x="7.1580062"
     height="11.545"
     width="0.090000004"
     fill="#bad5ff"
     fill-opacity="0.592"
     paint-order="markers stroke fill"
     id="rect12" />
  <rect
     width="0.090000004"
     height="11.545"
     x="7.8780074"
     y="-14.191"
     rx="0"
     ry="0"
     transform="rotate(90)"
     fill="#bad5ff"
     fill-opacity="0.592"
     paint-order="markers stroke fill"
     id="rect14" />
  <rect
     transform="rotate(90)"
     ry="0"
     rx="0"
     y="-14.191"
     x="11.377"
     height="11.545"
     width="0.090000004"
     fill="#bad5ff"
     fill-opacity="0.592"
     paint-order="markers stroke fill"
     id="rect16" />
  <rect
     width="0.090000004"
     height="11.545"
     x="12.344987"
     y="-14.191"
     rx="0"
     ry="0"
     transform="rotate(90)"
     fill="#bad5ff"
     fill-opacity="0.592"
     paint-order="markers stroke fill"
     id="rect18" />
  <rect
     ry="0"
     rx="0"
     y="1.5869917"
     x="13.049"
     height="13.758"
     width="0.18000001"
     fill="#bad5ff"
     fill-opacity="0.592"
     paint-order="markers stroke fill"
     id="rect20" />
  <rect
     width="0.18000001"
     height="13.758"
     x="4.2329998"
     y="1.5869917"
     rx="0"
     ry="0"
     fill="#f6b6b6"
     fill-opacity="0.694"
     paint-order="markers stroke fill"
     id="rect22" />
  <rect
     width="0.090000004"
     height="11.545"
     x="3.8790145"
     y="-14.191"
     rx="0"
     ry="0"
     transform="rotate(90)"
     fill="#bad5ff"
     fill-opacity="0.592"
     paint-order="markers stroke fill"
     id="rect24" />
  <path
     d="M 4.542,4.365 H 5.37 m 0.118,0 h 0.77 m 0.123,0 h 0.686 m 0.113,0 h 0.296 m 0.118,0 h 0.663 m 0.13,0 h 1.74 m 0.118,0 h 1.325 m 0.118,0 h 0.403 m -7.55,0.794 h 1.285 m 0.15,0 h 0.613 m 0.113,0 h 0.303 m 0.123,0 h 0.566 m 0.118,0 h 0.58 m 0.11,0 h 0.91 m 0.118,0 h 1.2 m -6.188,0.79 h 1.087 m 0.114,0 h 1.79 m 0.11,0 h 0.868 m 0.111,0 h 0.812 m 0.117,0 h 0.692 m 0.111,0 1.088,0.007 m -6.9,0.79 h 1.51 m 0.12,0 h 1.633 m 0.113,0 H 8.56 m 0.118,0 h 1.528 m 0.103,0 h 1.047 m 0.118,0 h 0.415 m 0.118,0 h 0.23 M 4.542,7.54 h 0.564 m 0.173,0 h 2.089 m -2.826,3.44 h 1.284 m 0.15,0 h 0.613 m 0.113,0 h 0.303 m 0.123,0 h 0.566 m 0.118,0 h 0.58 m 0.11,0 h 0.91 m -4.87,1.047 h 1.087 m 0.114,0 h 1.79 m 0.11,0 h 0.868 m 3.068,0.022 h 1.773 m -8.81,-1.863 h 1.51 m 0.12,0 h 1.633 m 0.113,0 H 8.56 m 0.118,0 h 1.528 M 4.542,8.599 H 5.37 m 0.118,0 h 0.77 m 0.123,0 h 0.686 m 0.113,0 h 0.296 m 0.118,0 h 0.663 m 0.13,0 h 1.74 m 0.118,0 H 11.57 M 4.542,9.392 h 1.394 m 0.11,0 h 1.481 m 0.113,0 h 0.58 m 0.109,0 h 1.393 m 0.112,0 h 1.522 m -6.814,3.44 h 1.303 m 0.14,0 H 6.56 m 0.134,0 h 0.287 m 0.091,0 h 0.566 m 0.075,0 h 2.996 m 0.14,0 h 0.8 m 0.108,0 h 0.202 m -5.932,0.794 h 0.425 m -1.91,0 h 1.36 m 0.659,0 H 7.55 m 0.105,0 h 1.452 m 0.113,0 h 0.985 m 0.1,0 h 0.202 m 0.111,0 h 1.251 m 0.128,0 h 0.655 m -6.625,0.793 h 0.6 m -2.085,0 h 1.36 m 0.855,0 h 0.844"
     fill="none"
     stroke="url(#b)"
     stroke-width="0.265"
     id="path26"
     style="stroke:url(#b)" />
  <rect
     transform="rotate(90)"
     ry="0"
     rx="0"
     y="-14.191"
     x="4.6720138"
     height="11.545"
     width="0.090000004"
     fill="#bad5ff"
     fill-opacity="0.592"
     paint-order="markers stroke fill"
     id="rect28" />
  <rect
     width="0.090000004"
     height="11.545"
     x="5.4659896"
     y="-14.191"
     rx="0"
     ry="0"
     transform="rotate(90)"
     fill="#bad5ff"
     fill-opacity="0.592"
     paint-order="markers stroke fill"
     id="rect30" />
  <rect
     transform="rotate(90)"
     ry="0"
     rx="0"
     y="-14.191"
     x="6.2599959"
     height="11.545"
     width="0.090000004"
     fill="#bad5ff"
     fill-opacity="0.592"
     paint-order="markers stroke fill"
     id="rect32" />
  <rect
     transform="rotate(90)"
     ry="0"
     rx="0"
     y="-14.191"
     x="7.8780074"
     height="11.545"
     width="0.090000004"
     fill="#bad5ff"
     fill-opacity="0.592"
     paint-order="markers stroke fill"
     id="rect34" />
  <rect
     width="0.090000004"
     height="11.545"
     x="8.9059916"
     y="-14.191"
     rx="0"
     ry="0"
     transform="rotate(90)"
     fill="#bad5ff"
     fill-opacity="0.592"
     paint-order="markers stroke fill"
     id="rect36" />
  <rect
     transform="rotate(90)"
     ry="0"
     rx="0"
     y="-14.191"
     x="9.6989908"
     height="11.545"
     width="0.090000004"
     fill="#bad5ff"
     fill-opacity="0.592"
     paint-order="markers stroke fill"
     id="rect38" />
  <rect
     width="0.090000004"
     height="11.545"
     x="10.492997"
     y="-14.191"
     rx="0"
     ry="0"
     transform="rotate(90)"
     fill="#bad5ff"
     fill-opacity="0.592"
     paint-order="markers stroke fill"
     id="rect40" />
  <rect
     transform="rotate(90)"
     ry="0"
     rx="0"
     y="-14.191"
     x="13.138993"
     height="11.545"
     width="0.090000004"
     fill="#bad5ff"
     fill-opacity="0.592"
     paint-order="markers stroke fill"
     id="rect42" />
  <rect
     width="0.090000004"
     height="11.545"
     x="13.933"
     y="-14.191"
     rx="0"
     ry="0"
     transform="rotate(90)"
     fill="#bad5ff"
     fill-opacity="0.592"
     paint-order="markers stroke fill"
     id="rect44" />
</svg>
