<?xml version="1.0" encoding="UTF-8" standalone="no"?>
<svg
   width="64"
   height="64"
   version="1.1"
   viewBox="0 0 16.933 16.933"
   id="svg10"
   sodipodi:docname="notes-up.svg"
   inkscape:version="1.1 (c4e8f9ed74, 2021-05-24)"
   xmlns:inkscape="http://www.inkscape.org/namespaces/inkscape"
   xmlns:sodipodi="http://sodipodi.sourceforge.net/DTD/sodipodi-0.dtd"
   xmlns="http://www.w3.org/2000/svg"
   xmlns:svg="http://www.w3.org/2000/svg">
  <defs
     id="defs14" />
  <sodipodi:namedview
     id="namedview12"
     pagecolor="#ffffff"
     bordercolor="#666666"
     borderopacity="1.0"
     inkscape:pageshadow="2"
     inkscape:pageopacity="0.0"
     inkscape:pagecheckerboard="0"
     showgrid="false"
     inkscape:zoom="11.046875"
     inkscape:cx="32"
     inkscape:cy="32"
     inkscape:window-width="1920"
     inkscape:window-height="1020"
     inkscape:window-x="0"
     inkscape:window-y="28"
     inkscape:window-maximized="1"
     inkscape:current-layer="svg10" />
  <path
     d="m3.2113 1.3228c-0.46002 0-0.83013 0.34062-0.83013 0.76536v12.757c0 0.4237 0.37011 0.76536 0.83013 0.76536h10.512c0.46002 0 0.82909-0.34166 0.82909-0.76536v-12.757c0-0.42474-0.37011-0.76536-0.82909-0.76536z"
     fill="#4e7bc0"
     stroke="#3c5885"
     stroke-width=".529"
     style="paint-order:markers stroke fill"
     id="path2" />
  <path
     d="m3.2113 1.3229c-0.46002 0-0.83012 0.34062-0.83012 0.76535v12.757c0 0.42369 0.3701 0.76535 0.83012 0.76535h10.511c0.46002 0 0.82908-0.34166 0.82908-0.76535v-12.757c0-0.42473-0.3701-0.76535-0.82908-0.76535z"
     fill="#4e7bc0"
     style="paint-order:markers stroke fill"
     id="path4" />
  <path
     d="m10.054 1.3239v6.35l1.059-1.059 1.058 1.058v-6.35z"
     fill="#e9b064"
     id="path6" />
  <path
     d="m3.2547 1.3229c-0.48403 0-0.87346 0.34059-0.87346 0.76426v12.758c0 0.42366 0.38943 0.76529 0.87346 0.76529h2.0373v-14.287z"
     fill="#000000"
     opacity=".25"
     id="path8" />
</svg>
