<?xml version="1.0" encoding="UTF-8" standalone="no"?>
<svg
   xmlns:dc="http://purl.org/dc/elements/1.1/"
   xmlns:cc="http://creativecommons.org/ns#"
   xmlns:rdf="http://www.w3.org/1999/02/22-rdf-syntax-ns#"
   xmlns:svg="http://www.w3.org/2000/svg"
   xmlns="http://www.w3.org/2000/svg"
   xmlns:sodipodi="http://sodipodi.sourceforge.net/DTD/sodipodi-0.dtd"
   xmlns:inkscape="http://www.inkscape.org/namespaces/inkscape"
   sodipodi:docname="synology-drive.svg"
   inkscape:version="1.0 (4035a4fb49, 2020-05-01)"
   version="1.1"
   id="svg2"
   viewBox="0 0 48 48">
  <metadata
     id="metadata41">
    <rdf:RDF>
      <cc:Work
         rdf:about="">
        <dc:format>image/svg+xml</dc:format>
        <dc:type
           rdf:resource="http://purl.org/dc/dcmitype/StillImage" />
      </cc:Work>
    </rdf:RDF>
  </metadata>
  <sodipodi:namedview
     inkscape:document-rotation="0"
     inkscape:current-layer="svg2"
     inkscape:window-maximized="1"
     inkscape:window-y="30"
     inkscape:window-x="0"
     inkscape:cy="63.173475"
     inkscape:cx="-52.268613"
     inkscape:zoom="4.9166667"
     showgrid="false"
     id="namedview39"
     inkscape:window-height="1017"
     inkscape:window-width="1920"
     inkscape:pageshadow="2"
     inkscape:pageopacity="0"
     guidetolerance="10"
     gridtolerance="10"
     objecttolerance="10"
     borderopacity="1"
     bordercolor="#666666"
     pagecolor="#ffffff" />
  <defs
     id="defs4">
    <linearGradient
       gradientTransform="matrix(0,-1,1,0,0,48)"
       gradientUnits="userSpaceOnUse"
       x2="47"
       x1="1"
       id="linearGradient3825">
      <stop
         id="stop7"
         style="stop-color:#345f88;stop-opacity:1" />
      <stop
         id="stop9"
         style="stop-color:#396a97;stop-opacity:1"
         offset="1" />
    </linearGradient>
  </defs>
  <path
     inkscape:connector-curvature="0"
     id="path33"
     style="fill:#e6e6e6;fill-opacity:1;fill-rule:nonzero;stroke:none"
     d="m -22.34288,14.220339 c -4.715,0 -9.05,2.822 -10.75,7.03 l 3.594,1.344 c 1.129,-2.809 4.01,-4.719 7.156,-4.719 3.035,0 5.723,1.689 6.968999,4.314 l -2.624999,1 6.688999,3.688 1.9380004,-6.969 -2.4380004,0.938 c -1.828,-4.03 -5.921999,-6.625 -10.530999,-6.625 h -0.002 z m -11.03,9.438 -2,6.814 2.469,-0.939 c 1.793,4.01 5.98,6.689 10.563,6.689 4.734,0 8.913999,-2.699 10.655999,-6.906 l -3.563,-1.375 c -1.167999,2.809 -3.937999,4.625 -7.093999,4.625 -3.01,0 -5.773,-1.734 -7,-4.344 l 2.594,-0.939 z" />
  <g
     transform="matrix(0.97063255,0,0,0.97063255,0.27500865,1.4784669)"
     id="g849">
    <g
       id="g11"
       transform="matrix(0.91154672,0,0,0.91154672,2.1108314,0.87004983)">
      <path
         d="m 36.31,5 c 5.859,4.062 9.688,10.831 9.688,18.5 0,12.426 -10.07,22.5 -22.5,22.5 -7.669,0 -14.438,-3.828 -18.5,-9.688 1.037,1.822 2.306,3.499 3.781,4.969 4.085,3.712 9.514,5.969 15.469,5.969 12.703,0 23,-10.298 23,-23 0,-5.954 -2.256,-11.384 -5.969,-15.469 C 39.81,7.306 38.132,6.037 36.31,5 Z m 4.969,3.781 c 3.854,4.113 6.219,9.637 6.219,15.719 0,12.703 -10.297,23 -23,23 -6.081,0 -11.606,-2.364 -15.719,-6.219 4.16,4.144 9.883,6.719 16.219,6.719 12.703,0 23,-10.298 23,-23 0,-6.335 -2.575,-12.06 -6.719,-16.219 z"
         style="opacity:0.05"
         id="path13" />
      <path
         d="m 41.28,8.781 c 3.712,4.085 5.969,9.514 5.969,15.469 0,12.703 -10.297,23 -23,23 -5.954,0 -11.384,-2.256 -15.469,-5.969 4.113,3.854 9.637,6.219 15.719,6.219 12.703,0 23,-10.298 23,-23 0,-6.081 -2.364,-11.606 -6.219,-15.719 z"
         style="opacity:0.1"
         id="path15" />
      <path
         d="M 31.25,2.375 C 39.865,5.529 46,13.792 46,23.505 c 0,12.426 -10.07,22.5 -22.5,22.5 -9.708,0 -17.971,-6.135 -21.12,-14.75 a 23,23 0 0 0 44.875,-7 23,23 0 0 0 -16,-21.875 z"
         style="opacity:0.2"
         id="path17" />
    </g>
    <path
       d="m 3.0223781,22.747171 c 0,-11.579378 9.3861969,-20.9655745 20.9655749,-20.9655745 11.579378,0 20.965574,9.3861965 20.965574,20.9655745 0,11.579378 -9.386196,20.965574 -20.965574,20.965574 -11.579378,0 -20.9655749,-9.386196 -20.9655749,-20.965574 z"
       style="fill:#376692;fill-opacity:1;stroke-width:0.911547"
       id="path19" />
    <g
       id="g35"
       transform="matrix(0.91154672,0,0,0.91154672,2.1108314,0.87004983)">
      <path
         d="m 40.03,7.531 c 3.712,4.084 5.969,9.514 5.969,15.469 0,12.703 -10.297,23 -23,23 C 17.045,46 11.615,43.744 7.53,40.031 11.708,44.322 17.54,47 23.999,47 c 12.703,0 23,-10.298 23,-23 0,-6.462 -2.677,-12.291 -6.969,-16.469 z"
         style="opacity:0.1"
         id="path37" />
    </g>
    <path
       style="fill:#e6e6e6;stroke-width:0.681906"
       d="M 10.41775,15.640726 23.982013,33.312583 37.54498,15.640726 Z m 5.135404,2.424962 h 16.856421 l -8.427562,10.981663 z"
       id="rect3355"
       inkscape:connector-curvature="0" />
  </g>
</svg>
