<?xml version="1.0" encoding="UTF-8" standalone="no"?>
<svg
   width="64"
   height="64"
   viewBox="0 0 16.933 16.933"
   version="1.1"
   id="svg10"
   sodipodi:docname="help-info.svg"
   inkscape:version="1.1.1 (3bf5ae0d25, 2021-09-20)"
   xmlns:inkscape="http://www.inkscape.org/namespaces/inkscape"
   xmlns:sodipodi="http://sodipodi.sourceforge.net/DTD/sodipodi-0.dtd"
   xmlns="http://www.w3.org/2000/svg"
   xmlns:svg="http://www.w3.org/2000/svg">
  <defs
     id="defs14" />
  <sodipodi:namedview
     id="namedview12"
     pagecolor="#ffffff"
     bordercolor="#999999"
     borderopacity="1"
     inkscape:pageshadow="0"
     inkscape:pageopacity="0"
     inkscape:pagecheckerboard="0"
     showgrid="false"
     inkscape:zoom="13.28125"
     inkscape:cx="32"
     inkscape:cy="32"
     inkscape:window-width="1920"
     inkscape:window-height="1020"
     inkscape:window-x="0"
     inkscape:window-y="28"
     inkscape:window-maximized="1"
     inkscape:current-layer="svg10" />
  <g
     transform="translate(0 -280.067)"
     id="g8">
    <circle
       r="7.144"
       cy="288.533"
       cx="8.467"
       opacity=".9"
       fill="#71a5e8"
       stroke="#4686de"
       stroke-width=".529"
       paint-order="stroke markers fill"
       id="circle2" />
    <circle
       cx="8.467"
       cy="288.533"
       r="7.144"
       fill="#71a5e8"
       paint-order="stroke markers fill"
       id="circle4" />
    <path
       d="M6.765 288.443c.081.22.173.399.367.155.24-.143 1.046-.77.966-.156-.258 1.137-.573 2.263-.813 3.404-.251.625.32 1.19.915.783.633-.26 1.178-.686 1.735-1.076-.076-.186-.127-.454-.337-.21-.275.125-.877.715-.989.228.232-1.231.66-2.417.934-3.64.253-.56-.16-1.27-.776-.806-.739.322-1.357.847-2.002 1.318zm2.742-4.142c-.753-.04-1.148 1.175-.431 1.508.58.238 1.214-.358 1.072-.954a.647.647 0 0 0-.64-.554z"
       style="line-height:100%;-inkscape-font-specification:'URW Palladio L Bold';text-align:start"
       font-weight="700"
       font-size="40"
       font-family="URW Palladio L"
       fill="#fff"
       id="path6" />
  </g>
</svg>
